<mxfile host="drawio-plugin" modified="2022-12-06T02:16:50.361Z" agent="5.0 (Windows NT 6.2; Win64; x64) AppleWebKit/537.36 (KHTML, like Gecko) Chrome/97.0.4692.45 Safari/537.36" version="20.5.3" etag="8Yhg7h_2UX3soWPSVss7" type="embed"><diagram id="M8MxXBrPchK3HFXcNhpn" name="Page-1"><mxGraphModel dx="1844" dy="688" grid="1" gridSize="10" guides="1" tooltips="1" connect="1" arrows="1" fold="1" page="1" pageScale="1" pageWidth="827" pageHeight="1169" math="0" shadow="0"><root><mxCell id="0"/><mxCell id="1" parent="0"/><mxCell id="46" style="edgeStyle=orthogonalEdgeStyle;rounded=0;orthogonalLoop=1;jettySize=auto;html=1;exitX=0.5;exitY=1;exitDx=0;exitDy=0;entryX=0.5;entryY=0;entryDx=0;entryDy=0;fontSize=13;" parent="1" source="47" target="50" edge="1"><mxGeometry relative="1" as="geometry"/></mxCell><mxCell id="47" value="selectWaitRawSbomTask&lt;br&gt;&lt;span style=&quot;font-size: 11px; font-weight: 400;&quot;&gt;本地计算&lt;/span&gt;" style="rounded=1;whiteSpace=wrap;html=1;fillColor=#dae8fc;strokeColor=#6c8ebf;fontSize=13;fontStyle=1" parent="1" vertex="1"><mxGeometry x="110" y="10" width="180" height="40" as="geometry"/></mxCell><mxCell id="48" value="No" style="edgeStyle=orthogonalEdgeStyle;rounded=0;orthogonalLoop=1;jettySize=auto;html=1;exitX=1;exitY=0.5;exitDx=0;exitDy=0;entryX=0;entryY=0.5;entryDx=0;entryDy=0;fontSize=13;dashed=1;" parent="1" source="50" target="51" edge="1"><mxGeometry y="10" relative="1" as="geometry"><mxPoint as="offset"/></mxGeometry></mxCell><mxCell id="49" value="YES" style="edgeStyle=orthogonalEdgeStyle;rounded=0;orthogonalLoop=1;jettySize=auto;html=1;exitX=0.5;exitY=1;exitDx=0;exitDy=0;entryX=0.5;entryY=0;entryDx=0;entryDy=0;fontSize=13;dashed=1;" parent="1" source="50" target="67" edge="1"><mxGeometry y="20" relative="1" as="geometry"><mxPoint as="offset"/></mxGeometry></mxCell><mxCell id="50" value="has wait job" style="rhombus;whiteSpace=wrap;html=1;fillColor=#d5e8d4;strokeColor=#82b366;fontSize=13;" parent="1" vertex="1"><mxGeometry x="160" y="90" width="80" height="80" as="geometry"/></mxCell><mxCell id="51" value="Over" style="ellipse;whiteSpace=wrap;html=1;aspect=fixed;fillColor=#f8cecc;strokeColor=#b85450;fontSize=13;" parent="1" vertex="1"><mxGeometry x="320" y="105" width="50" height="50" as="geometry"/></mxCell><mxCell id="52" style="edgeStyle=orthogonalEdgeStyle;rounded=0;orthogonalLoop=1;jettySize=auto;html=1;exitX=0.5;exitY=1;exitDx=0;exitDy=0;entryX=0.5;entryY=0;entryDx=0;entryDy=0;fontSize=12;fontColor=#000000;" parent="1" source="53" edge="1"><mxGeometry relative="1" as="geometry"><mxPoint x="200" y="570" as="targetPoint"/></mxGeometry></mxCell><mxCell id="53" value="persistSbomMetadataTask&lt;br&gt;&lt;span style=&quot;font-size: 11px; font-weight: 400;&quot;&gt;本地计算&lt;/span&gt;" style="rounded=1;whiteSpace=wrap;html=1;fillColor=#dae8fc;strokeColor=#6c8ebf;fontSize=13;fontStyle=1" parent="1" vertex="1"><mxGeometry x="110" y="490" width="180" height="40" as="geometry"/></mxCell><mxCell id="54" style="edgeStyle=orthogonalEdgeStyle;rounded=0;orthogonalLoop=1;jettySize=auto;html=1;exitX=0.5;exitY=1;exitDx=0;exitDy=0;fontSize=13;fontColor=#000000;" parent="1" source="55" target="53" edge="1"><mxGeometry relative="1" as="geometry"/></mxCell><mxCell id="55" value="parseSbomMetadataTask&lt;br&gt;&lt;span style=&quot;font-size: 11px; font-weight: 400;&quot;&gt;本地计算&lt;/span&gt;" style="rounded=1;whiteSpace=wrap;html=1;fillColor=#dae8fc;strokeColor=#6c8ebf;fontSize=13;fontStyle=1" parent="1" vertex="1"><mxGeometry x="110" y="410" width="180" height="40" as="geometry"/></mxCell><mxCell id="56" style="edgeStyle=orthogonalEdgeStyle;rounded=0;orthogonalLoop=1;jettySize=auto;html=1;exitX=0.5;exitY=1;exitDx=0;exitDy=0;entryX=0;entryY=0.5;entryDx=0;entryDy=0;fontSize=13;fontColor=#000000;" parent="1" source="58" target="55" edge="1"><mxGeometry relative="1" as="geometry"/></mxCell><mxCell id="57" value="parse trace data" style="edgeLabel;html=1;align=center;verticalAlign=middle;resizable=0;points=[];fontSize=13;fontColor=#000000;" parent="56" vertex="1" connectable="0"><mxGeometry x="-0.3667" relative="1" as="geometry"><mxPoint y="-32" as="offset"/></mxGeometry></mxCell><mxCell id="58" value="AnalyzeTraceDataTask&lt;br&gt;&lt;span style=&quot;font-size: 11px; font-weight: 400;&quot;&gt;本地计算&lt;/span&gt;" style="rounded=1;whiteSpace=wrap;html=1;fillColor=#dae8fc;strokeColor=#6c8ebf;fontSize=13;fontStyle=1" parent="1" vertex="1"><mxGeometry x="-100" y="330" width="180" height="40" as="geometry"/></mxCell><mxCell id="59" style="edgeStyle=orthogonalEdgeStyle;rounded=0;orthogonalLoop=1;jettySize=auto;html=1;entryX=1;entryY=0.5;entryDx=0;entryDy=0;fontSize=13;fontColor=#000000;exitX=0.5;exitY=1;exitDx=0;exitDy=0;" parent="1" source="61" target="55" edge="1"><mxGeometry relative="1" as="geometry"/></mxCell><mxCell id="60" value="&lt;font style=&quot;font-size: 12px&quot;&gt;analyze package managers&lt;/font&gt;" style="edgeLabel;html=1;align=center;verticalAlign=middle;resizable=0;points=[];fontSize=13;fontColor=#000000;" parent="59" vertex="1" connectable="0"><mxGeometry x="-0.0444" y="1" relative="1" as="geometry"><mxPoint x="16" y="-36" as="offset"/></mxGeometry></mxCell><mxCell id="61" value="AnalyzeDefinitionFileTask&lt;br&gt;&lt;span style=&quot;font-size: 11px; font-weight: 400;&quot;&gt;本地计算&lt;/span&gt;" style="rounded=1;whiteSpace=wrap;html=1;fillColor=#dae8fc;strokeColor=#6c8ebf;fontSize=13;fontStyle=1" parent="1" vertex="1"><mxGeometry x="320" y="330" width="180" height="40" as="geometry"/></mxCell><mxCell id="62" value="&lt;font style=&quot;font-size: 12px&quot;&gt;SBOM File&lt;/font&gt;" style="edgeStyle=orthogonalEdgeStyle;rounded=0;orthogonalLoop=1;jettySize=auto;html=1;exitX=0.5;exitY=1;exitDx=0;exitDy=0;entryX=0.5;entryY=0;entryDx=0;entryDy=0;fontSize=13;fontColor=#000000;dashed=1;" parent="1" source="67" target="55" edge="1"><mxGeometry relative="1" as="geometry"><mxPoint x="200" y="310" as="sourcePoint"/></mxGeometry></mxCell><mxCell id="63" style="edgeStyle=orthogonalEdgeStyle;rounded=0;orthogonalLoop=1;jettySize=auto;html=1;fontSize=13;fontColor=#000000;dashed=1;" parent="1" source="67" target="58" edge="1"><mxGeometry relative="1" as="geometry"/></mxCell><mxCell id="64" value="&lt;font style=&quot;font-size: 12px&quot;&gt;Trace Data File&lt;/font&gt;" style="edgeLabel;html=1;align=center;verticalAlign=middle;resizable=0;points=[];fontSize=13;fontColor=#000000;" parent="63" vertex="1" connectable="0"><mxGeometry x="-0.0087" relative="1" as="geometry"><mxPoint x="-46" y="40" as="offset"/></mxGeometry></mxCell><mxCell id="65" style="edgeStyle=orthogonalEdgeStyle;rounded=0;orthogonalLoop=1;jettySize=auto;html=1;exitX=1;exitY=0.5;exitDx=0;exitDy=0;entryX=0.5;entryY=0;entryDx=0;entryDy=0;fontSize=13;fontColor=#000000;dashed=1;" parent="1" source="67" target="61" edge="1"><mxGeometry relative="1" as="geometry"/></mxCell><mxCell id="66" value="&lt;font style=&quot;font-size: 12px&quot;&gt;Package Managers&lt;/font&gt;" style="edgeLabel;html=1;align=center;verticalAlign=middle;resizable=0;points=[];fontSize=13;fontColor=#000000;" parent="65" vertex="1" connectable="0"><mxGeometry x="0.3391" y="3" relative="1" as="geometry"><mxPoint x="-7" y="33" as="offset"/></mxGeometry></mxCell><mxCell id="67" value="&lt;pre style=&quot;background-color: rgb(255 , 255 , 255) ; font-family: &amp;#34;jetbrains mono&amp;#34; , monospace ; font-size: 8.3pt&quot;&gt;&lt;pre style=&quot;font-family: &amp;#34;jetbrains mono&amp;#34; , monospace ; font-size: 8.3pt&quot;&gt;skipAnalyzeSbomContentDecider&lt;/pre&gt;&lt;/pre&gt;" style="rhombus;whiteSpace=wrap;html=1;fillColor=#d5e8d4;strokeColor=#82b366;fontSize=13;" parent="1" vertex="1"><mxGeometry x="160" y="210" width="80" height="80" as="geometry"/></mxCell><mxCell id="68" style="edgeStyle=orthogonalEdgeStyle;rounded=0;orthogonalLoop=1;jettySize=auto;html=1;entryX=0.5;entryY=0;entryDx=0;entryDy=0;fontSize=12;fontColor=#000000;" parent="1" source="69" target="84" edge="1"><mxGeometry relative="1" as="geometry"/></mxCell><mxCell id="69" value="" style="rounded=1;whiteSpace=wrap;html=1;fontSize=12;fillColor=#e1d5e7;strokeColor=#9673a6;" parent="1" vertex="1"><mxGeometry x="-240" y="650" width="880" height="150" as="geometry"/></mxCell><mxCell id="70" value="&lt;b&gt;sbomConsumers&lt;/b&gt;" style="text;html=1;strokeColor=none;fillColor=none;align=center;verticalAlign=middle;whiteSpace=wrap;rounded=0;fontSize=13;fontColor=#000000;" parent="1" vertex="1"><mxGeometry x="-240" y="650" width="140" height="20" as="geometry"/></mxCell><mxCell id="71" style="edgeStyle=orthogonalEdgeStyle;rounded=0;orthogonalLoop=1;jettySize=auto;html=1;exitX=0.5;exitY=1;exitDx=0;exitDy=0;fontSize=12;fontColor=#000000;" parent="1" source="72" edge="1"><mxGeometry relative="1" as="geometry"><mxPoint x="200" y="650" as="targetPoint"/></mxGeometry></mxCell><mxCell id="72" value="&lt;b&gt;resolveMavenDepTask&lt;br&gt;&lt;/b&gt;&lt;span style=&quot;font-size: 11px; font-weight: 400;&quot;&gt;外部请求&lt;/span&gt;&lt;b&gt;&lt;br&gt;&lt;/b&gt;" style="rounded=1;whiteSpace=wrap;html=1;fillColor=#ffe6cc;strokeColor=#d79b00;fontSize=13;fontStyle=1" parent="1" vertex="1"><mxGeometry x="110" y="570" width="180" height="40" as="geometry"/></mxCell><mxCell id="73" value="extractOssIndex&lt;br&gt;&lt;span style=&quot;font-size: 11px; font-weight: 400;&quot;&gt;外部请求&lt;/span&gt;" style="rounded=1;whiteSpace=wrap;html=1;fillColor=#ffe6cc;strokeColor=#d79b00;fontSize=13;fontStyle=1" parent="1" vertex="1"><mxGeometry x="-210" y="690" width="180" height="40" as="geometry"/></mxCell><mxCell id="74" style="edgeStyle=orthogonalEdgeStyle;rounded=0;orthogonalLoop=1;jettySize=auto;html=1;exitX=0.5;exitY=1;exitDx=0;exitDy=0;entryX=0.5;entryY=0;entryDx=0;entryDy=0;fontSize=12;fontColor=#000000;" parent="1" source="75" target="78" edge="1"><mxGeometry relative="1" as="geometry"/></mxCell><mxCell id="75" value="extractLicense&lt;br&gt;&lt;span style=&quot;font-size: 11px; font-weight: 400;&quot;&gt;外部请求&lt;/span&gt;" style="rounded=1;whiteSpace=wrap;html=1;fillColor=#ffe6cc;strokeColor=#d79b00;fontSize=13;fontStyle=1" parent="1" vertex="1"><mxGeometry x="225" y="690" width="180" height="40" as="geometry"/></mxCell><mxCell id="76" value="extractCveManger&lt;br&gt;&lt;span style=&quot;font-size: 11px; font-weight: 400;&quot;&gt;外部请求&lt;/span&gt;" style="rounded=1;whiteSpace=wrap;html=1;fillColor=#ffe6cc;strokeColor=#d79b00;fontSize=13;fontStyle=1" parent="1" vertex="1"><mxGeometry x="10" y="690" width="180" height="40" as="geometry"/></mxCell><mxCell id="77" value="supplySourceInfo&lt;br&gt;&lt;span style=&quot;font-weight: normal;&quot;&gt;&lt;font style=&quot;font-size: 11px;&quot;&gt;外部请求&lt;/font&gt;&lt;/span&gt;" style="rounded=1;whiteSpace=wrap;html=1;fillColor=#ffe6cc;strokeColor=#d79b00;fontSize=13;fontStyle=1" parent="1" vertex="1"><mxGeometry x="440" y="690" width="180" height="40" as="geometry"/></mxCell><mxCell id="78" value="fillUpLicense&lt;br&gt;&lt;span style=&quot;font-size: 11px; font-weight: 400;&quot;&gt;本地计算&lt;/span&gt;" style="rounded=1;whiteSpace=wrap;html=1;fillColor=#dae8fc;strokeColor=#6c8ebf;fontSize=13;fontStyle=1" parent="1" vertex="1"><mxGeometry x="225" y="750" width="180" height="40" as="geometry"/></mxCell><mxCell id="79" style="edgeStyle=orthogonalEdgeStyle;rounded=0;orthogonalLoop=1;jettySize=auto;html=1;fontSize=12;fontColor=#000000;entryX=0.5;entryY=0;entryDx=0;entryDy=0;" parent="1" target="76" edge="1"><mxGeometry relative="1" as="geometry"><mxPoint x="560" y="620" as="targetPoint"/><mxPoint x="200" y="650" as="sourcePoint"/><Array as="points"><mxPoint x="200" y="670"/><mxPoint x="100" y="670"/></Array></mxGeometry></mxCell><mxCell id="80" style="edgeStyle=orthogonalEdgeStyle;rounded=0;orthogonalLoop=1;jettySize=auto;html=1;fontSize=12;fontColor=#000000;entryX=0.5;entryY=0;entryDx=0;entryDy=0;" parent="1" target="75" edge="1"><mxGeometry relative="1" as="geometry"><mxPoint x="570" y="630" as="targetPoint"/><mxPoint x="200" y="650" as="sourcePoint"/><Array as="points"><mxPoint x="200" y="670"/><mxPoint x="315" y="670"/></Array></mxGeometry></mxCell><mxCell id="81" style="edgeStyle=orthogonalEdgeStyle;rounded=0;orthogonalLoop=1;jettySize=auto;html=1;fontSize=12;fontColor=#000000;" parent="1" edge="1"><mxGeometry relative="1" as="geometry"><mxPoint x="560" y="690" as="targetPoint"/><mxPoint x="200" y="650" as="sourcePoint"/><Array as="points"><mxPoint x="200" y="670"/><mxPoint x="560" y="670"/></Array></mxGeometry></mxCell><mxCell id="82" style="edgeStyle=orthogonalEdgeStyle;rounded=0;orthogonalLoop=1;jettySize=auto;html=1;fontSize=12;fontColor=#000000;entryX=0.5;entryY=0;entryDx=0;entryDy=0;" parent="1" target="73" edge="1"><mxGeometry relative="1" as="geometry"><mxPoint x="560" y="620" as="targetPoint"/><mxPoint x="200" y="651" as="sourcePoint"/><Array as="points"><mxPoint x="200" y="670"/><mxPoint x="-120" y="670"/></Array></mxGeometry></mxCell><mxCell id="83" style="edgeStyle=orthogonalEdgeStyle;rounded=0;orthogonalLoop=1;jettySize=auto;html=1;exitX=0.5;exitY=1;exitDx=0;exitDy=0;entryX=0.5;entryY=0;entryDx=0;entryDy=0;fontSize=12;fontColor=#000000;" parent="1" source="84" target="86" edge="1"><mxGeometry relative="1" as="geometry"/></mxCell><mxCell id="84" value="collectStatisticsTask&lt;br&gt;&lt;span style=&quot;font-size: 11px; font-weight: 400;&quot;&gt;本地计算&lt;/span&gt;" style="rounded=1;whiteSpace=wrap;html=1;fillColor=#dae8fc;strokeColor=#6c8ebf;fontSize=13;fontStyle=1" parent="1" vertex="1"><mxGeometry x="110" y="830" width="180" height="40" as="geometry"/></mxCell><mxCell id="85" style="edgeStyle=orthogonalEdgeStyle;rounded=0;orthogonalLoop=1;jettySize=auto;html=1;exitX=0.5;exitY=1;exitDx=0;exitDy=0;entryX=0.5;entryY=0;entryDx=0;entryDy=0;fontSize=12;fontColor=#000000;" parent="1" source="86" target="87" edge="1"><mxGeometry relative="1" as="geometry"/></mxCell><mxCell id="86" value="readSbomEndTask&lt;br&gt;&lt;span style=&quot;font-size: 11px; font-weight: 400;&quot;&gt;本地计算&lt;/span&gt;" style="rounded=1;whiteSpace=wrap;html=1;fillColor=#dae8fc;strokeColor=#6c8ebf;fontSize=13;fontStyle=1" parent="1" vertex="1"><mxGeometry x="110" y="900" width="180" height="40" as="geometry"/></mxCell><mxCell id="87" value="Over" style="ellipse;whiteSpace=wrap;html=1;aspect=fixed;fillColor=#f8cecc;strokeColor=#b85450;fontSize=13;" parent="1" vertex="1"><mxGeometry x="175" y="970" width="50" height="50" as="geometry"/></mxCell><mxCell id="100" value="" style="group" vertex="1" connectable="0" parent="1"><mxGeometry x="520" y="820" width="80" height="200" as="geometry"/></mxCell><mxCell id="95" value="" style="rounded=0;whiteSpace=wrap;html=1;fontSize=11;fillColor=#f5f5f5;fontColor=#333333;strokeColor=#666666;movable=1;resizable=1;rotatable=1;deletable=1;editable=1;connectable=1;container=0;" vertex="1" parent="100"><mxGeometry width="80" height="200" as="geometry"/></mxCell><mxCell id="96" value="Decider" style="rhombus;whiteSpace=wrap;html=1;fillColor=#d5e8d4;strokeColor=#82b366;fontSize=13;movable=0;resizable=0;rotatable=0;deletable=0;editable=0;connectable=0;" vertex="1" parent="100"><mxGeometry x="10" y="132" width="60" height="60" as="geometry"/></mxCell><mxCell id="97" value="Step" style="rounded=1;whiteSpace=wrap;html=1;fillColor=#dae8fc;strokeColor=#6c8ebf;fontSize=13;fontStyle=1;movable=0;resizable=0;rotatable=0;deletable=0;editable=0;connectable=0;" vertex="1" parent="100"><mxGeometry x="5" y="50" width="70" height="30" as="geometry"/></mxCell><mxCell id="98" value="Chunk" style="rounded=1;whiteSpace=wrap;html=1;fillColor=#ffe6cc;strokeColor=#d79b00;fontSize=13;fontStyle=1;movable=0;resizable=0;rotatable=0;deletable=0;editable=0;connectable=0;" vertex="1" parent="100"><mxGeometry x="5.5" y="91" width="70" height="30" as="geometry"/></mxCell><mxCell id="99" value="flow" style="rounded=1;whiteSpace=wrap;html=1;fillColor=#e1d5e7;strokeColor=#9673a6;fontSize=13;fontStyle=1;movable=0;resizable=0;rotatable=0;deletable=0;editable=0;connectable=0;" vertex="1" parent="100"><mxGeometry x="5" y="9" width="70" height="30" as="geometry"/></mxCell></root></mxGraphModel></diagram></mxfile>